HIERARCHY
ROOT Hips
{
	OFFSET 0.000000 71.427986 0.000000
	CHANNELS 6 Xposition Yposition Zposition Xrotation Yrotation Zrotation
	JOINT Pelvis
	{
		OFFSET 0.000000 0.000000 0.000000
		CHANNELS 3 Xrotation Yrotation Zrotation
		JOINT LeftUpLeg
		{
			OFFSET 6.797100 -2.508499 -1.318700
			CHANNELS 3 Xrotation Yrotation Zrotation
			JOINT LeftLeg
			{
				OFFSET 0.069008 -29.241863 0.690200
				CHANNELS 3 Xrotation Yrotation Zrotation
				JOINT LeftFoot
				{
					OFFSET -0.069008 -29.568123 -0.266800
					CHANNELS 3 Xrotation Yrotation Zrotation
					JOINT LeftToeBase
					{
						OFFSET 3.145500 -8.631000 16.059900
						CHANNELS 3 Xrotation Yrotation Zrotation
						End Site
						{
							OFFSET 0.000000 18.501587 0.000000
						}
					}
				}
			}
			JOINT Left_ShortSleeve
			{
				OFFSET 0.265923 -10.480953 1.153800
				CHANNELS 3 Xrotation Yrotation Zrotation
				End Site
				{
					OFFSET 1.725763 19.823879 0.000000
				}
			}
		}
		JOINT RightUpLeg
		{
			OFFSET -6.797100 -2.508499 -1.318700
			CHANNELS 3 Xrotation Yrotation Zrotation
			JOINT RightLeg
			{
				OFFSET -0.082453 -29.241932 0.688000
				CHANNELS 3 Xrotation Yrotation Zrotation
				JOINT RightFoot
				{
					OFFSET 0.082453 -29.568058 -0.264600
					CHANNELS 3 Xrotation Yrotation Zrotation
					JOINT RightToeBase
					{
						OFFSET -3.115300 -8.682800 16.113400
						CHANNELS 3 Xrotation Yrotation Zrotation
						End Site
						{
							OFFSET 0.000000 18.567114 0.000000
						}
					}
				}
			}
			JOINT Right_ShortSleeve
			{
				OFFSET -0.265923 -10.480953 1.153800
				CHANNELS 3 Xrotation Yrotation Zrotation
				End Site
				{
					OFFSET -1.725766 19.823910 0.000000
				}
			}
		}
	}
	JOINT Spine
	{
		OFFSET 0.000000 13.368103 0.470500
		CHANNELS 3 Xrotation Yrotation Zrotation
		JOINT Spine1
		{
			OFFSET 0.147000 13.837402 0.538800
			CHANNELS 3 Xrotation Yrotation Zrotation
			JOINT Spine2
			{
				OFFSET 0.168000 16.242897 -1.435500
				CHANNELS 3 Xrotation Yrotation Zrotation
				JOINT Neck
				{
					OFFSET 0.217200 18.631500 -1.679100
					CHANNELS 3 Xrotation Yrotation Zrotation
					JOINT Head
					{
						OFFSET 0.000000 6.599396 1.385900
						CHANNELS 3 Xrotation Yrotation Zrotation
						JOINT Hat
						{
							OFFSET -0.532200 27.220596 -10.096100
							CHANNELS 3 Xrotation Yrotation Zrotation
							End Site
							{
								OFFSET 0.000000 22.029861 0.000000
							}
						}
						JOINT HairD
						{
							OFFSET -10.777400 17.437393 -1.325900
							CHANNELS 3 Xrotation Yrotation Zrotation
							JOINT HairD1
							{
								OFFSET -3.290299 -11.051193 1.062200
								CHANNELS 3 Xrotation Yrotation Zrotation
								End Site
								{
									OFFSET 0.000000 11.579437 0.000000
								}
							}
						}
						JOINT HairB
						{
							OFFSET -10.777400 17.437393 1.467900
							CHANNELS 3 Xrotation Yrotation Zrotation
							JOINT HairB1
							{
								OFFSET -1.561200 -12.956299 3.590200
								CHANNELS 3 Xrotation Yrotation Zrotation
								End Site
								{
									OFFSET 0.000000 13.534866 0.000000
								}
							}
						}
						JOINT HairA
						{
							OFFSET 9.713100 17.437393 1.467900
							CHANNELS 3 Xrotation Yrotation Zrotation
							JOINT HairA1
							{
								OFFSET 1.561200 -12.956299 3.590200
								CHANNELS 3 Xrotation Yrotation Zrotation
								End Site
								{
									OFFSET 0.000000 13.534866 0.000000
								}
							}
						}
						JOINT HairC
						{
							OFFSET 9.713100 17.437393 -1.325900
							CHANNELS 3 Xrotation Yrotation Zrotation
							JOINT HairC1
							{
								OFFSET 3.290300 -11.051193 1.062200
								CHANNELS 3 Xrotation Yrotation Zrotation
								End Site
								{
									OFFSET 0.000000 11.579437 0.000000
								}
							}
						}
					}
				}
				JOINT LeftShoulder
				{
					OFFSET 5.101800 15.108002 -2.763700
					CHANNELS 3 Xrotation Yrotation Zrotation
					JOINT LeftArm
					{
						OFFSET 9.825497 2.506317 -1.597400
						CHANNELS 3 Xrotation Yrotation Zrotation
						JOINT LeftForeArm
						{
							OFFSET 21.966244 0.000000 0.000000
							CHANNELS 3 Xrotation Yrotation Zrotation
							JOINT LeftHand
							{
								OFFSET 33.879036 0.000000 0.000000
								CHANNELS 3 Xrotation Yrotation Zrotation
								JOINT LeftHandThumb1
								{
									OFFSET 6.715286 -2.359680 3.363841
									CHANNELS 3 Xrotation Yrotation Zrotation
									JOINT LeftHandThumb2
									{
										OFFSET 2.507072 -1.447464 1.447461
										CHANNELS 3 Xrotation Yrotation Zrotation
										JOINT LeftHandThumb3
										{
											OFFSET 2.898338 -1.673355 1.673357
											CHANNELS 3 Xrotation Yrotation Zrotation
											End Site
											{
												OFFSET -0.295959 3.727692 -0.131651
											}
										}
									}
								}
								JOINT LeftHandIndex1
								{
									OFFSET 14.190811 -0.254547 3.840278
									CHANNELS 3 Xrotation Yrotation Zrotation
									JOINT LeftHandIndex2
									{
										OFFSET 3.551727 0.000000 -0.000000
										CHANNELS 3 Xrotation Yrotation Zrotation
										JOINT LeftHandIndex3
										{
											OFFSET 2.894196 0.000000 0.000000
											CHANNELS 3 Xrotation Yrotation Zrotation
											End Site
											{
												OFFSET -1.000603 2.690872 0.366626
											}
										}
									}
								}
								JOINT LeftHandMiddle1
								{
									OFFSET 13.776489 0.000000 0.000000
									CHANNELS 3 Xrotation Yrotation Zrotation
									JOINT LeftHandMiddle2
									{
										OFFSET 3.438232 0.000000 0.000000
										CHANNELS 3 Xrotation Yrotation Zrotation
										JOINT LeftHandMiddle3
										{
											OFFSET 3.691551 0.000000 0.000000
											CHANNELS 3 Xrotation Yrotation Zrotation
											End Site
											{
												OFFSET -1.082298 3.499527 0.457670
											}
										}
									}
								}
								JOINT LeftHandRing1
								{
									OFFSET 13.966164 -0.268127 -3.067488
									CHANNELS 3 Xrotation Yrotation Zrotation
									JOINT LeftHandRing2
									{
										OFFSET 3.162567 0.000000 0.000000
										CHANNELS 3 Xrotation Yrotation Zrotation
										JOINT LeftHandRing3
										{
											OFFSET 3.324348 0.000000 0.000000
											CHANNELS 3 Xrotation Yrotation Zrotation
											End Site
											{
												OFFSET -0.861900 3.184998 0.405154
											}
										}
									}
								}
								JOINT LeftHandPinky1
								{
									OFFSET 13.131393 -0.168503 -5.746925
									CHANNELS 3 Xrotation Yrotation Zrotation
									JOINT LeftHandPinky2
									{
										OFFSET 2.849182 0.000000 0.000000
										CHANNELS 3 Xrotation Yrotation Zrotation
										JOINT LeftHandPinky3
										{
											OFFSET 2.805038 0.000000 0.000000
											CHANNELS 3 Xrotation Yrotation Zrotation
											End Site
											{
												OFFSET -0.882500 2.642609 0.325652
											}
										}
									}
								}
							}
							JOINT Left_Sleeve
							{
								OFFSET 6.592125 -0.646545 0.805568
								CHANNELS 3 Xrotation Yrotation Zrotation
								End Site
								{
									OFFSET -0.000179 20.275787 -0.000000
								}
							}
						}
					}
				}
				JOINT RightShoulder
				{
					OFFSET -5.731700 15.108002 -2.763700
					CHANNELS 3 Xrotation Yrotation Zrotation
					JOINT RightArm
					{
						OFFSET -9.825497 2.506317 -1.597400
						CHANNELS 3 Xrotation Yrotation Zrotation
						JOINT RightForeArm
						{
							OFFSET -21.966242 0.000000 0.000000
							CHANNELS 3 Xrotation Yrotation Zrotation
							JOINT RightHand
							{
								OFFSET -33.879032 0.000000 0.000000
								CHANNELS 3 Xrotation Yrotation Zrotation
								JOINT RightHandThumb1
								{
									OFFSET -6.715286 -2.359680 3.363841
									CHANNELS 3 Xrotation Yrotation Zrotation
									JOINT RightHandThumb2
									{
										OFFSET -2.507072 -1.447464 1.447461
										CHANNELS 3 Xrotation Yrotation Zrotation
										JOINT RightHandThumb3
										{
											OFFSET -2.898338 -1.673355 1.673357
											CHANNELS 3 Xrotation Yrotation Zrotation
											End Site
											{
												OFFSET 0.295959 3.727692 -0.131651
											}
										}
									}
								}
								JOINT RightHandIndex1
								{
									OFFSET -14.190811 -0.254547 3.840278
									CHANNELS 3 Xrotation Yrotation Zrotation
									JOINT RightHandIndex2
									{
										OFFSET -3.551727 0.000000 -0.000000
										CHANNELS 3 Xrotation Yrotation Zrotation
										JOINT RightHandIndex3
										{
											OFFSET -2.894196 0.000000 0.000000
											CHANNELS 3 Xrotation Yrotation Zrotation
											End Site
											{
												OFFSET 1.000603 2.690872 0.366626
											}
										}
									}
								}
								JOINT RightHandMiddle1
								{
									OFFSET -13.776489 0.000000 0.000000
									CHANNELS 3 Xrotation Yrotation Zrotation
									JOINT RightHandMiddle2
									{
										OFFSET -3.438232 0.000000 0.000000
										CHANNELS 3 Xrotation Yrotation Zrotation
										JOINT RightHandMiddle3
										{
											OFFSET -3.691551 0.000000 0.000000
											CHANNELS 3 Xrotation Yrotation Zrotation
											End Site
											{
												OFFSET 1.082298 3.499527 0.457670
											}
										}
									}
								}
								JOINT RightHandRing1
								{
									OFFSET -13.966164 -0.268127 -3.067488
									CHANNELS 3 Xrotation Yrotation Zrotation
									JOINT RightHandRing2
									{
										OFFSET -3.162567 0.000000 0.000000
										CHANNELS 3 Xrotation Yrotation Zrotation
										JOINT RightHandRing3
										{
											OFFSET -3.324348 0.000000 0.000000
											CHANNELS 3 Xrotation Yrotation Zrotation
											End Site
											{
												OFFSET 0.861900 3.184998 0.405154
											}
										}
									}
								}
								JOINT RightHandPinky1
								{
									OFFSET -13.131393 -0.168503 -5.746925
									CHANNELS 3 Xrotation Yrotation Zrotation
									JOINT RightHandPinky2
									{
										OFFSET -2.849182 0.000000 0.000000
										CHANNELS 3 Xrotation Yrotation Zrotation
										JOINT RightHandPinky3
										{
											OFFSET -2.805038 0.000000 0.000000
											CHANNELS 3 Xrotation Yrotation Zrotation
											End Site
											{
												OFFSET 0.882500 2.642609 0.325652
											}
										}
									}
								}
							}
							JOINT Right_Sleeve
							{
								OFFSET -6.592125 -0.646545 0.805568
								CHANNELS 3 Xrotation Yrotation Zrotation
								End Site
								{
									OFFSET 0.000179 20.275787 -0.000000
								}
							}
						}
					}
				}
				JOINT Bind_Right_JacketString
				{
					OFFSET -3.534800 11.969597 7.200700
					CHANNELS 3 Xrotation Yrotation Zrotation
					JOINT Bind_Right_JacketString1
					{
						OFFSET -0.319900 -6.102600 2.794100
						CHANNELS 3 Xrotation Yrotation Zrotation
						End Site
						{
							OFFSET 0.000000 6.719452 0.000000
						}
					}
				}
				JOINT Bind_Left_JacketString
				{
					OFFSET 2.904800 11.969597 7.200700
					CHANNELS 3 Xrotation Yrotation Zrotation
					JOINT Bind_Left_JacketString1
					{
						OFFSET 0.364800 -5.904503 3.186800
						CHANNELS 3 Xrotation Yrotation Zrotation
						End Site
						{
							OFFSET 0.000000 6.719513 0.000000
						}
					}
				}
				JOINT HairE
				{
					OFFSET 5.915200 17.612701 -11.592200
					CHANNELS 3 Xrotation Yrotation Zrotation
					JOINT HairE1
					{
						OFFSET 0.289200 -7.171898 -1.284500
						CHANNELS 3 Xrotation Yrotation Zrotation
						End Site
						{
							OFFSET 0.000000 7.291756 0.000000
						}
					}
				}
				JOINT HairF
				{
					OFFSET -0.864800 17.612701 -11.592200
					CHANNELS 3 Xrotation Yrotation Zrotation
					JOINT HairF1
					{
						OFFSET 0.000000 -14.087097 -2.127501
						CHANNELS 3 Xrotation Yrotation Zrotation
						End Site
						{
							OFFSET 0.000000 14.246841 0.000000
						}
					}
				}
				JOINT HairG
				{
					OFFSET -8.087700 17.612701 -11.592200
					CHANNELS 3 Xrotation Yrotation Zrotation
					JOINT HairG1
					{
						OFFSET -0.293600 -6.081398 -0.910100
						CHANNELS 3 Xrotation Yrotation Zrotation
						End Site
						{
							OFFSET 0.000000 6.156120 0.000000
						}
					}
				}
			}
		}
	}
	JOINT Pouch
	{
		OFFSET 0.000000 4.394501 10.847300
		CHANNELS 3 Xrotation Yrotation Zrotation
		End Site
		{
			OFFSET 0.000000 21.880577 0.000000
		}
	}
	JOINT Bag
	{
		OFFSET -13.229000 4.813004 -0.593300
		CHANNELS 3 Xrotation Yrotation Zrotation
		End Site
		{
			OFFSET 0.000000 21.880577 0.000000
		}
	}
	JOINT OccupyGuyFacialAnim_Joint
	{
		OFFSET 1.000000 -70.206398 -1.655000
		CHANNELS 3 Xrotation Yrotation Zrotation
		End Site
		{
			OFFSET 0.000000 21.880577 0.000000
		}
	}
}
MOTION
Frames: 4
Frame Time: 0.016667
5.798450 65.046211 2.174775 7.620461 -12.354742 -1.270812 -0.000000 0.000001 -0.000000 -36.733744 6.949071 11.682307 52.102165 10.539983 -0.635460 -21.829476 4.271801 -7.531840 0.000000 -0.000000 -0.000000 0.000002 0.000000 0.000000 -26.513415 -8.217090 -13.416646 55.821394 -10.371977 -4.235423 -22.536260 -2.577851 12.480847 0.000000 0.000001 0.000000 -0.000001 0.000002 -0.000000 12.229510 3.409450 -0.661094 8.663413 6.770425 -1.612663 -3.297301 6.958099 -0.159534 -0.991911 -3.974976 2.371376 -6.068524 4.595729 3.692734 0.000003 0.000000 0.000001 0.000003 0.000000 0.000001 0.000003 0.000000 0.000000 0.000003 0.000000 -0.000000 -0.000001 0.000000 -0.000000 0.000003 0.000000 -0.000000 -0.000001 0.000000 -0.000000 0.000003 0.000000 0.000001 0.000003 0.000000 0.000001 -1.718771 -6.046466 -0.999763 -9.929217 -3.537260 -61.475664 -13.021840 -28.779221 -4.874861 3.253027 -3.484879 2.550456 9.040755 -12.718923 18.216746 1.363601 15.487454 -8.835082 0.000000 0.000001 -0.000003 0.246870 -3.282366 -9.380882 0.146900 -0.568597 -12.524030 -0.000000 0.000002 -0.000002 0.303774 -1.400853 -19.445122 -0.067850 -0.992368 -19.744945 0.000000 0.000001 -0.000001 0.311369 -1.053632 -29.065566 -0.418705 -1.362105 -26.922208 -0.000001 -0.000001 0.000001 0.350747 -0.343917 -35.674652 -0.294695 -1.232619 -23.599883 0.000000 0.000001 -0.000000 0.000001 0.000001 -0.000003 5.719868 -19.303436 3.068946 43.556707 52.747618 9.950982 16.038114 32.046807 10.507644 -14.715646 13.315897 13.704571 9.209782 13.472182 -12.080016 2.060347 -16.534860 8.984671 0.000001 -0.000001 -0.000002 0.272411 4.252674 3.917188 0.097338 0.794966 17.452774 0.000002 0.000000 0.000002 0.238345 1.901018 12.464134 -0.127018 0.878992 17.470143 -0.000002 0.000000 0.000001 0.354425 1.611359 15.137388 -0.271876 0.900471 18.135633 0.000001 0.000000 0.000003 0.691694 0.544336 20.829733 -0.117066 0.729745 14.164455 -0.000000 0.000000 -0.000003 -0.000000 -0.000001 -0.000000 0.000000 0.000000 -0.000000 0.000000 0.000000 0.000000 0.000000 0.000000 -0.000000 0.000000 0.000000 -0.000000 0.000000 0.000000 -0.000000 0.000000 0.000000 0.000000 0.000000 0.000000 -0.000000 0.000000 0.000000 -0.000000 0.000000 0.000000 -0.000000 0.000000 0.000000 0.000000 -0.000000 0.000001 -0.000000 -0.000000 0.000001 -0.000000 -0.000000 0.000001 -0.000000 
5.868153 65.289848 2.065883 7.680463 -12.407775 -1.593693 0.000000 -0.000000 -0.000000 -36.519293 6.980720 11.874943 51.186367 10.529438 -0.555909 -21.300956 4.207492 -7.379726 0.000000 0.000000 -0.000000 0.000003 -0.000000 -0.000000 -25.870492 -8.491859 -12.762191 53.377351 -9.338008 -4.110241 -22.591638 -2.011606 12.711369 0.000001 0.000001 0.000001 -0.000000 -0.000003 -0.000000 12.183630 3.366933 -0.598903 8.547019 6.722060 -1.512190 -3.408232 6.901167 -0.063846 -1.053642 -3.761027 2.184397 -5.982003 4.507764 3.913932 0.000002 0.000000 0.000000 0.000002 0.000000 0.000000 0.000002 0.000000 0.000000 0.000002 0.000000 -0.000000 -0.000000 0.000000 0.000000 0.000002 0.000000 -0.000000 -0.000000 0.000000 0.000000 0.000002 0.000000 0.000000 0.000002 0.000000 0.000000 -1.721886 -5.625957 -0.861950 -9.809320 -3.483230 -61.749643 -12.683617 -28.217823 -4.423326 2.945146 -3.556562 2.922822 8.621204 -13.079486 18.342635 1.306470 15.454476 -8.827686 0.000000 0.000002 0.000001 0.229296 -3.521987 -8.971265 0.151046 -0.550441 -12.121720 0.000000 0.000000 -0.000000 0.267621 -1.573903 -19.285073 -0.064363 -0.926966 -18.408092 0.000002 -0.000000 -0.000001 0.257088 -1.314077 -28.904244 -0.368986 -1.304175 -25.643804 -0.000002 0.000002 0.000002 0.348994 -0.523205 -35.437173 -0.234776 -1.172894 -22.279356 0.000002 -0.000001 -0.000001 0.000001 -0.000001 0.000002 5.552875 -18.831827 2.973356 39.568266 52.456590 11.456138 15.406269 28.844336 12.492168 -12.915761 11.870657 10.921171 8.723140 10.519470 -15.535918 3.760581 -18.612737 9.384830 0.000001 -0.000001 0.000000 0.272419 4.252685 3.917191 0.097353 0.794937 17.452747 0.000001 -0.000001 0.000000 0.238602 1.901086 12.464099 -0.127004 0.878898 17.470147 -0.000001 -0.000001 -0.000004 0.333465 1.685686 16.601062 -0.293347 0.971911 19.599069 0.000002 -0.000004 0.000003 0.658935 0.626609 22.524514 -0.138287 0.820281 15.858972 -0.000000 -0.000001 -0.000003 0.000001 0.000000 -0.000001 -0.000002 -0.000000 -0.000000 -0.000002 -0.000000 -0.000000 -0.000002 -0.000000 -0.000000 -0.000002 -0.000000 -0.000000 -0.000002 -0.000000 -0.000000 -0.000002 -0.000000 -0.000000 -0.000002 -0.000000 -0.000000 -0.000002 -0.000000 -0.000000 -0.000002 -0.000000 -0.000000 -0.000002 -0.000000 -0.000000 0.000000 -0.000000 -0.000000 0.000000 -0.000000 -0.000000 0.000000 -0.000000 -0.000000 
5.928048 65.551353 1.951579 7.697238 -12.563257 -1.764667 0.000000 -0.000000 -0.000000 -36.147970 7.148187 11.956364 50.109102 10.553044 -0.477661 -20.703581 4.178122 -7.235769 0.000000 0.000000 0.000000 -0.000001 -0.000000 -0.000000 -25.075228 -8.679491 -12.242724 50.605490 -8.415480 -3.977025 -22.543838 -1.483078 12.864569 0.000000 0.000001 0.000001 -0.000000 -0.000001 -0.000001 12.118146 3.340955 -0.548241 8.392771 6.705783 -1.434636 -3.557805 6.874140 0.015578 -1.257222 -3.492915 1.762464 -5.750385 4.331826 4.311512 0.000003 -0.000000 0.000000 0.000003 -0.000000 0.000000 0.000003 -0.000000 0.000000 0.000003 -0.000000 -0.000000 0.000001 -0.000000 -0.000001 0.000003 -0.000000 -0.000000 0.000001 -0.000000 -0.000001 0.000003 -0.000000 0.000000 0.000003 -0.000000 0.000000 -1.718688 -4.981516 -0.876835 -9.750008 -3.501924 -62.027414 -12.393338 -27.714435 -3.952371 2.908211 -3.641423 2.842482 8.234330 -13.400417 18.456486 1.254997 15.424691 -8.821081 0.000001 -0.000002 0.000000 0.217573 -3.737798 -8.582414 0.154701 -0.534118 -11.758771 0.000002 0.000003 -0.000003 0.236386 -1.729264 -19.127299 -0.062506 -0.868307 -17.202209 0.000001 0.000001 0.000001 0.210334 -1.547693 -28.740125 -0.325339 -1.250621 -24.490852 -0.000003 0.000001 -0.000001 0.351875 -0.683515 -35.201173 -0.181889 -1.117243 -21.088359 0.000001 -0.000001 0.000003 0.000000 -0.000000 0.000000 5.335513 -18.451759 2.888869 35.701300 51.672294 13.059071 16.301520 26.406587 13.088711 -11.445490 11.784241 6.571862 8.389704 8.489651 -17.965508 4.956790 -20.040677 9.703281 -0.000000 -0.000001 0.000001 0.272396 4.252673 3.917166 0.097332 0.794969 17.452846 -0.000001 -0.000002 -0.000000 0.238806 1.901181 12.464113 -0.126995 0.878898 17.470120 -0.000003 -0.000002 -0.000003 0.317768 1.737023 17.612017 -0.308448 1.021270 20.610002 -0.000000 -0.000001 -0.000002 0.634943 0.682610 23.695209 -0.152825 0.879842 17.029589 0.000001 -0.000001 -0.000005 -0.000000 0.000001 -0.000001 -0.000000 -0.000000 -0.000000 -0.000000 -0.000000 0.000000 -0.000000 -0.000000 -0.000000 -0.000000 -0.000000 -0.000000 -0.000000 -0.000000 -0.000000 -0.000000 -0.000000 0.000000 -0.000000 -0.000000 -0.000000 -0.000000 -0.000000 -0.000000 -0.000000 -0.000000 -0.000000 -0.000000 -0.000000 0.000000 0.000000 -0.000000 -0.000000 0.000000 -0.000000 -0.000000 0.000000 -0.000000 -0.000000 
5.958055 65.794830 1.857825 7.718278 -12.669872 -1.922650 -0.000000 -0.000000 -0.000000 -35.825329 7.483437 12.026859 49.044713 10.349241 -0.224747 -20.136810 4.231927 -7.101614 0.000000 -0.000000 -0.000000 0.000001 0.000000 -0.000000 -24.268712 -8.863060 -11.804058 47.841664 -7.804437 -3.771989 -22.368260 -0.775187 13.029625 0.000000 -0.000000 0.000000 -0.000000 0.000000 -0.000000 12.051006 3.316119 -0.499839 8.235420 6.693141 -1.358527 -3.710613 6.857831 0.094730 -1.458328 -3.264164 1.331756 -5.486249 4.125539 4.660446 0.000002 -0.000000 -0.000000 0.000002 -0.000000 -0.000000 0.000002 -0.000000 -0.000001 0.000002 -0.000000 -0.000000 0.000000 -0.000000 0.000000 0.000002 -0.000000 -0.000000 0.000000 -0.000000 0.000000 0.000002 -0.000000 -0.000000 0.000002 -0.000000 -0.000000 -1.716043 -4.454584 -0.893410 -9.717392 -3.541837 -62.272283 -11.923617 -27.096119 -3.494353 2.744755 -3.959306 2.862264 7.883958 -13.676958 18.558645 1.209528 15.398665 -8.814999 0.000001 0.000001 -0.000002 0.211200 -3.927025 -8.217442 0.157838 -0.519725 -11.439775 0.000001 0.000003 -0.000003 0.210196 -1.865051 -18.972508 -0.061834 -0.817032 -16.141877 -0.000000 0.000000 -0.000001 0.171261 -1.751803 -28.573649 -0.287840 -1.202487 -23.477064 -0.000000 0.000001 0.000000 0.356393 -0.823093 -34.967505 -0.136333 -1.066885 -20.041225 0.000000 -0.000001 -0.000001 0.000000 0.000004 0.000000 5.098994 -17.776578 2.830945 31.146814 51.316871 16.165635 17.702681 22.785030 11.882995 -9.757198 12.247064 4.285801 8.265277 7.734443 -18.880849 5.407744 -20.572226 9.831257 -0.000000 -0.000001 -0.000000 0.272388 4.252674 3.917158 0.097377 0.794979 17.452814 0.000001 -0.000001 0.000000 0.239043 1.901191 12.464084 -0.127005 0.878925 17.470132 0.000002 -0.000000 -0.000001 0.313150 1.756788 17.989229 -0.312752 1.040267 20.987156 0.000002 -0.000002 0.000000 0.625745 0.703336 24.132032 -0.156812 0.902474 17.466310 0.000002 -0.000001 0.000000 -0.000001 0.000000 0.000001 -0.000004 -0.000000 0.000000 -0.000002 -0.000001 0.000000 -0.000004 -0.000000 0.000000 -0.000004 -0.000000 0.000000 -0.000004 -0.000000 0.000000 -0.000002 -0.000001 0.000000 -0.000004 -0.000000 0.000000 -0.000004 -0.000000 0.000000 -0.000004 -0.000000 0.000000 -0.000002 -0.000001 0.000000 -0.000000 -0.000000 -0.000000 -0.000000 -0.000000 -0.000000 -0.000000 -0.000000 -0.000000 
